<svg width="160" height="186" viewBox="0 0 160 186" fill="none" xmlns="http://www.w3.org/2000/svg">
<mask id="mask0_488_1824" style="mask-type:luminance" maskUnits="userSpaceOnUse" x="20" y="0" width="120" height="120">
<path d="M20 0H140V120H20V0Z" fill="white"/>
</mask>
<g mask="url(#mask0_488_1824)">
<path d="M42.708 101.022C50.8121 104.605 78.3302 116.263 93.0576 116.263C94.8636 116.263 96.3657 116.078 97.5285 115.721C97.9455 115.594 98.2954 115.454 98.61 115.286C103.024 112.948 102.604 104.69 102.112 95.1299C101.791 88.8123 101.455 82.2822 102.402 75.9646C103.498 68.6118 108.594 62.3045 115.705 59.5073C118.091 58.5715 121.353 58.0127 124.428 58.0127C128.807 58.0127 132.313 59.072 134.649 61.0464C137.144 43.098 134.988 28.8791 128.213 18.736C124.318 12.9018 119.081 8.69917 112.652 6.24823C102.204 2.27874 90.9123 4.38346 83.1898 11.7431C75.7678 18.8114 73.5765 28.8311 77.3264 38.5492C78.0721 40.4791 77.6374 42.6832 77.2204 44.8154C76.9765 46.046 76.7256 47.3212 76.7786 48.3118C76.7892 48.5141 76.8104 48.6786 76.8351 48.8157C77.0225 48.7677 77.2275 48.7095 77.3936 48.6615C78.2913 48.4078 79.4117 48.089 80.5744 48.3838C81.4403 48.5998 82.0341 49.1825 82.4724 49.6556C82.953 49.5013 83.6175 49.4156 84.3279 49.7481L84.3491 49.7618C85.2751 50.2074 85.7981 51.181 85.6921 52.2402C85.6603 52.5487 85.5825 52.8195 85.4977 53.0526C85.5048 53.056 85.5118 53.0594 85.5189 53.0663C86.0137 53.368 86.3884 53.7005 86.6817 54.0912C87.3426 54.9653 87.6148 55.7298 87.8763 56.4702C87.9152 56.5867 87.9576 56.7101 88.0035 56.8335C89.1911 56.5559 91.9443 55.4795 95.5493 54.0672C98.1222 53.0594 100.126 52.984 101.678 53.8444C102.558 54.3312 103.678 55.3698 104.01 57.5363C104.579 61.2315 101.745 63.5453 99.4688 65.4033L99.2285 65.5987C95.9062 68.3204 92.5168 70.3771 89.2441 72.3653C83.7306 75.7143 78.9734 78.6075 75.9233 83.7527C74.704 85.8129 74.0537 87.7942 73.99 89.6418C73.9229 91.654 74.4919 94.2112 75.9021 95.075C76.821 95.6406 77.2522 96.6005 77.0225 97.5808C76.3121 100.618 68.8618 102.088 66.9073 102.315C61.4468 102.949 59.3121 101.163 58.4851 99.5519L57.7005 98.0265L59.2025 97.1386C59.2838 97.0906 67.5682 91.9934 65.6562 87.1086C64.3449 83.7493 63.062 83.1494 61.931 82.6181C61.0262 82.1896 59.7857 81.6069 59.2732 79.9752C58.8385 78.6109 55.184 71.0867 48.3699 68.389C44.2242 66.747 39.6049 67.2338 34.6427 69.8287C28.4577 73.0749 24.5876 77.9905 24.0221 83.314C23.9126 84.3423 24.2413 85.3741 24.9446 86.2208L24.9552 86.2345C25.9872 87.4617 26.9627 88.7746 27.9063 90.0772C28.5107 89.323 29.3766 88.8054 30.3945 88.6032C30.6277 88.5518 30.8575 88.5209 31.0907 88.5141C31.1685 88.5106 31.2462 88.5072 31.324 88.5072C32.6069 88.5072 33.8369 89.0283 34.9785 90.0566C37.3641 92.1476 39.7038 96.6999 41.3331 100.399C41.7572 100.591 42.1708 100.779 42.5843 100.968C42.6231 100.985 42.6656 101.002 42.708 101.022ZM93.0576 119.975C77.5526 119.975 49.3737 108.05 41.1069 104.395L40.9762 104.341C40.3577 104.053 39.7321 103.772 39.0676 103.48L38.3785 103.179L38.0851 102.5C36.0458 97.7556 33.9182 94.1324 32.3984 92.8024L32.3737 92.7818C31.9743 92.4219 31.5997 92.2196 31.324 92.2196L31.1685 92.2402C30.9847 92.2779 30.9458 92.3362 30.9246 92.3739C30.6419 92.8126 31.066 94.2523 31.225 94.7974L33.9924 104.262L27.8498 96.4256C27.0899 95.4555 26.3053 94.3552 25.5419 93.2925C24.3968 91.6917 23.2128 90.036 21.9793 88.5792L21.951 88.5449C20.6151 86.9372 19.993 84.9422 20.2086 82.9335C20.9014 76.3725 25.4995 70.408 32.8155 66.5619C38.8414 63.4117 44.5599 62.8701 49.8225 64.9508C57.9832 68.1833 62.3056 76.9004 62.9383 78.8851C62.9524 78.9263 62.9595 78.9434 62.9595 78.9434C63.0231 79.0017 63.3624 79.1594 63.6063 79.2759C65.5219 80.1775 67.5364 81.4218 69.2435 85.7958C71.4241 91.3626 66.6705 96.2131 63.5745 98.6503C63.5957 98.6538 63.6169 98.6538 63.6381 98.6572C66.4054 99.0308 70.4416 97.9133 72.4137 96.9947C70.6607 94.9996 70.074 91.9831 70.1553 89.5184C70.2401 87.0606 71.0601 84.4966 72.5975 81.9051C76.1212 75.9543 81.5075 72.6841 87.2048 69.2219C90.368 67.3023 93.6372 65.3141 96.7509 62.7638L96.9983 62.565C99.1578 60.7996 100.451 59.617 100.215 58.0813C100.133 57.5465 99.9707 57.1763 99.7727 57.0666C99.4547 56.8918 98.5393 56.9021 96.9912 57.5088C89.442 60.4637 87.8692 61.0773 86.2152 60.3574C85.0383 59.8467 84.653 58.7909 84.395 58.0916C84.342 57.9476 84.2925 57.8071 84.2466 57.6734C84.0274 57.0495 83.9037 56.7067 83.5821 56.2817C83.5715 56.2714 83.5432 56.2508 83.4867 56.2131C83.416 56.172 83.3241 56.1274 83.2393 56.0794C81.9776 55.4178 81.359 54.5471 81.3979 53.4845C80.6239 53.224 80.0726 52.6275 79.7227 52.2505C79.652 52.1716 79.553 52.0654 79.4717 51.9831C79.2173 52.0139 78.7649 52.1442 78.4751 52.2265C77.3759 52.5384 74.4636 53.3645 73.3433 50.4817C73.1171 49.9024 72.9863 49.2511 72.9474 48.5004C72.8732 47.0641 73.1665 45.5661 73.4528 44.1195C73.7709 42.4913 74.1031 40.8047 73.732 39.8484C71.5549 34.2061 71.1167 28.3067 72.4703 22.7878C73.7356 17.6288 76.51 12.8949 80.4967 9.0968C89.3183 0.695056 102.176 -1.7216 114.055 2.78949C121.247 5.53523 127.093 10.2212 131.433 16.717C139.371 28.6083 141.453 45.4358 137.618 66.7333L135.759 77.0718L133.843 66.7436C133.755 66.2808 133.631 65.8866 133.458 65.5404C132.242 63.0757 129.04 61.7251 124.428 61.7251C121.82 61.7251 119.098 62.1845 117.147 62.9489C111.298 65.2524 107.099 70.4423 106.198 76.4959C105.304 82.457 105.629 88.8054 105.944 94.9414C106.495 105.756 106.976 115.09 100.455 118.542C99.9176 118.827 99.338 119.063 98.6842 119.262C97.1538 119.732 95.2594 119.975 93.0576 119.975Z" fill="#044D29"/>
</g>
<path d="M15.3 171.756L16.236 166.716C17.964 166.716 19.62 166.632 21.204 166.464C22.812 166.296 24.336 165.96 25.776 165.456C27.24 164.952 28.608 164.208 29.88 163.224C31.152 162.24 32.304 160.92 33.336 159.264L37.368 161.1C37.224 161.556 37.104 162 37.008 162.432C36.912 162.84 36.864 163.176 36.864 163.44C36.864 163.992 36.996 164.472 37.26 164.88C37.548 165.288 38.028 165.6 38.7 165.816C39.372 166.032 40.296 166.14 41.472 166.14C42.384 166.14 43.032 166.38 43.416 166.86C43.8 167.316 43.992 167.892 43.992 168.588C43.992 169.332 43.74 169.956 43.236 170.46C42.756 170.94 42.048 171.18 41.112 171.18C39.456 171.18 38.016 170.952 36.792 170.496C35.592 170.04 34.644 169.404 33.948 168.588C33.276 167.748 32.88 166.788 32.76 165.708L34.2 165.852C33.336 166.884 32.256 167.772 30.96 168.516C29.688 169.26 28.236 169.872 26.604 170.352C24.996 170.832 23.232 171.18 21.312 171.396C19.416 171.636 17.412 171.756 15.3 171.756ZM15.264 171.756C12.672 171.756 10.476 171.552 8.676 171.144C6.9 170.76 5.448 170.208 4.32 169.488C3.216 168.744 2.412 167.88 1.908 166.896C1.404 165.912 1.152 164.832 1.152 163.656C1.152 162.888 1.212 162.12 1.332 161.352C1.476 160.56 1.644 159.792 1.836 159.048C2.052 158.304 2.244 157.632 2.412 157.032L6.912 158.076C6.816 158.508 6.708 158.976 6.588 159.48C6.468 159.984 6.372 160.476 6.3 160.956C6.228 161.412 6.192 161.832 6.192 162.216C6.192 163.104 6.504 163.896 7.128 164.592C7.776 165.264 8.832 165.792 10.296 166.176C11.76 166.536 13.728 166.716 16.2 166.716L16.92 170.604L15.264 171.756ZM21.96 155.304C21.264 155.304 20.664 155.064 20.16 154.584C19.68 154.08 19.44 153.492 19.44 152.82C19.44 152.124 19.68 151.524 20.16 151.02C20.664 150.516 21.264 150.264 21.96 150.264C22.632 150.264 23.208 150.516 23.688 151.02C24.168 151.524 24.408 152.124 24.408 152.82C24.408 153.492 24.168 154.08 23.688 154.584C23.208 155.064 22.632 155.304 21.96 155.304ZM15.732 155.268C15.036 155.268 14.436 155.028 13.932 154.548C13.452 154.044 13.212 153.456 13.212 152.784C13.212 152.088 13.452 151.488 13.932 150.984C14.436 150.48 15.036 150.228 15.732 150.228C16.404 150.228 16.98 150.48 17.46 150.984C17.94 151.488 18.18 152.088 18.18 152.784C18.18 153.456 17.94 154.044 17.46 154.548C16.98 155.028 16.404 155.268 15.732 155.268ZM64.6417 171.18C63.5377 171.18 62.5057 171.096 61.5457 170.928C60.6097 170.76 59.7457 170.472 58.9537 170.064C58.1617 169.632 57.4537 169.044 56.8297 168.3C56.2297 167.556 55.7257 166.62 55.3177 165.492L58.1617 163.224C58.5937 163.992 59.1217 164.592 59.7457 165.024C60.3697 165.432 61.1137 165.72 61.9777 165.888C62.8417 166.056 63.8497 166.14 65.0017 166.14C65.9137 166.14 66.5617 166.38 66.9457 166.86C67.3297 167.316 67.5217 167.892 67.5217 168.588C67.5217 169.332 67.2697 169.956 66.7657 170.46C66.2857 170.94 65.5777 171.18 64.6417 171.18ZM41.0977 171.18L41.4577 166.14C42.7537 166.14 44.0377 166.068 45.3097 165.924C46.5817 165.78 47.8177 165.564 49.0177 165.276C50.2177 164.988 51.3577 164.616 52.4377 164.16C53.5417 163.704 54.5737 163.152 55.5337 162.504C54.8137 162.072 54.0337 161.7 53.1937 161.388C52.3537 161.076 51.4537 160.848 50.4937 160.704C49.5577 160.536 48.5617 160.452 47.5057 160.452C47.1217 160.452 46.7137 160.464 46.2817 160.488C45.8737 160.512 45.4537 160.56 45.0217 160.632C44.5897 160.68 44.1577 160.752 43.7257 160.848L43.0057 155.916C43.7017 155.724 44.4337 155.592 45.2017 155.52C45.9937 155.424 46.6897 155.376 47.2897 155.376C48.5857 155.376 49.7737 155.52 50.8537 155.808C51.9577 156.096 52.9657 156.456 53.8777 156.888C54.8137 157.32 55.6777 157.752 56.4697 158.184C57.2857 158.616 58.0537 158.976 58.7737 159.264C59.5177 159.552 60.2377 159.696 60.9337 159.696H62.2657L62.8417 164.484C61.8097 164.532 60.8377 164.736 59.9257 165.096C59.0377 165.432 58.1497 165.864 57.2617 166.392C56.3977 166.896 55.4617 167.424 54.4537 167.976C53.4697 168.528 52.3537 169.044 51.1057 169.524C49.8577 170.004 48.4177 170.4 46.7857 170.712C45.1537 171.024 43.2577 171.18 41.0977 171.18ZM83.3003 171.648C81.0683 171.648 79.2083 171.552 77.7203 171.36C76.2563 171.168 75.0683 170.892 74.1563 170.532C73.2443 170.172 72.5243 169.74 71.9963 169.236C71.4683 168.732 71.0363 168.18 70.7003 167.58L71.7083 167.292C71.1083 168.444 70.4243 169.296 69.6563 169.848C68.8883 170.4 68.0843 170.76 67.2443 170.928C66.4043 171.096 65.5403 171.18 64.6523 171.18L65.0123 166.14C65.7563 166.14 66.3443 166.02 66.7763 165.78C67.2083 165.54 67.5563 165.144 67.8203 164.592C68.1083 164.04 68.3723 163.308 68.6123 162.396C68.8523 161.484 69.1403 160.368 69.4763 159.048L74.0483 160.164C73.8803 160.812 73.7363 161.376 73.6163 161.856C73.5203 162.336 73.4363 162.756 73.3643 163.116C73.3163 163.452 73.2923 163.728 73.2923 163.944C73.2923 164.4 73.4003 164.808 73.6163 165.168C73.8323 165.504 74.2523 165.78 74.8763 165.996C75.5003 166.188 76.4123 166.344 77.6123 166.464C78.8363 166.56 80.4323 166.608 82.4003 166.608C84.4883 166.608 86.2283 166.536 87.6203 166.392C89.0123 166.224 90.1163 165.996 90.9323 165.708C91.7723 165.396 92.3723 165.024 92.7323 164.592C93.0923 164.136 93.2723 163.62 93.2723 163.044C93.2723 162.588 93.1643 162.168 92.9483 161.784C92.7563 161.376 92.4323 161.04 91.9763 160.776C91.5203 160.512 90.9323 160.38 90.2123 160.38C89.3483 160.38 88.4723 160.596 87.5843 161.028C86.7203 161.436 85.8683 161.988 85.0283 162.684C84.1883 163.356 83.3843 164.112 82.6163 164.952C81.8723 165.792 81.2003 166.632 80.6003 167.472L75.2003 166.86C76.1363 165.348 77.1923 163.896 78.3683 162.504C79.5443 161.112 80.8043 159.888 82.1483 158.832C83.4923 157.752 84.8843 156.9 86.3243 156.276C87.7643 155.652 89.2283 155.34 90.7163 155.34C92.3243 155.34 93.6923 155.652 94.8203 156.276C95.9483 156.9 96.8123 157.764 97.4123 158.868C98.0123 159.972 98.3123 161.244 98.3123 162.684C98.3123 164.436 97.8083 165.984 96.8003 167.328C95.8163 168.672 94.2203 169.728 92.0123 170.496C89.8283 171.264 86.9243 171.648 83.3003 171.648ZM109.897 185.588V183.068L118.393 180.548V183.14L109.897 185.588ZM107.486 179.28L105.65 174.672C107.714 173.952 109.382 173.16 110.654 172.296C111.95 171.432 112.898 170.508 113.498 169.524C114.122 168.54 114.434 167.52 114.434 166.464C114.434 165.792 114.338 165.096 114.146 164.376C113.954 163.632 113.678 162.852 113.318 162.036C112.982 161.22 112.574 160.368 112.094 159.48L116.81 157.212C117.65 158.82 118.298 160.356 118.754 161.82C119.234 163.284 119.474 164.652 119.474 165.924C119.474 167.1 119.318 168.228 119.006 169.308C118.718 170.388 118.262 171.396 117.638 172.332C117.038 173.292 116.258 174.192 115.298 175.032C114.338 175.872 113.21 176.64 111.914 177.336C110.618 178.056 109.142 178.704 107.486 179.28ZM115.442 153.54C114.698 153.54 114.062 153.288 113.534 152.784C113.03 152.28 112.778 151.656 112.778 150.912C112.778 150.168 113.03 149.532 113.534 149.004C114.062 148.476 114.698 148.212 115.442 148.212C116.162 148.212 116.774 148.476 117.278 149.004C117.806 149.532 118.07 150.168 118.07 150.912C118.07 151.656 117.806 152.28 117.278 152.784C116.774 153.288 116.162 153.54 115.442 153.54ZM124.521 171L123.765 144.648H128.805L129.561 171H124.521ZM133.536 179.28L132.492 174.24C134.196 174.024 135.684 173.76 136.956 173.448C138.228 173.16 139.296 172.752 140.16 172.224C141.024 171.696 141.672 170.976 142.104 170.064C142.536 169.128 142.752 167.928 142.752 166.464C142.752 165.936 142.704 165.408 142.608 164.88C142.512 164.328 142.368 163.824 142.176 163.368C141.984 162.912 141.732 162.54 141.42 162.252C141.132 161.964 140.784 161.82 140.376 161.82C139.944 161.82 139.56 161.976 139.224 162.288C138.888 162.576 138.624 162.948 138.432 163.404C138.24 163.836 138.144 164.28 138.144 164.736C138.144 165.072 138.228 165.36 138.396 165.6C138.564 165.816 138.816 165.984 139.152 166.104C139.488 166.2 139.908 166.248 140.412 166.248C140.988 166.248 141.576 166.188 142.176 166.068C142.8 165.924 143.364 165.732 143.868 165.492L144.012 169.416C143.436 169.872 142.776 170.28 142.032 170.64C141.288 170.976 140.388 171.144 139.332 171.144C138.468 171.144 137.664 171.048 136.92 170.856C136.176 170.64 135.516 170.316 134.94 169.884C134.388 169.452 133.956 168.9 133.644 168.228C133.332 167.532 133.176 166.704 133.176 165.744C133.176 164.568 133.368 163.428 133.752 162.324C134.136 161.22 134.664 160.236 135.336 159.372C136.032 158.484 136.824 157.788 137.712 157.284C138.624 156.756 139.584 156.492 140.592 156.492C141.792 156.492 142.836 156.792 143.724 157.392C144.636 157.992 145.392 158.784 145.992 159.768C146.592 160.728 147.048 161.772 147.36 162.9C147.672 164.028 147.828 165.108 147.828 166.14C147.828 168.852 147.252 171.156 146.1 173.052C144.948 174.948 143.304 176.412 141.168 177.444C139.032 178.5 136.488 179.112 133.536 179.28ZM152.222 171L151.538 147.168H156.578L157.262 171H152.222ZM156.326 143.676C155.606 143.676 154.958 143.556 154.382 143.316C153.806 143.052 153.278 142.8 152.798 142.56C152.318 142.32 151.874 142.2 151.466 142.2C151.034 142.2 150.638 142.308 150.278 142.524C149.942 142.74 149.582 143.04 149.198 143.424L147.506 141.84C148.154 141.024 148.802 140.412 149.45 140.004C150.122 139.596 150.794 139.392 151.466 139.392C152.066 139.392 152.618 139.512 153.122 139.752C153.626 139.992 154.13 140.232 154.634 140.472C155.162 140.712 155.726 140.832 156.326 140.832C156.71 140.832 157.07 140.772 157.406 140.652C157.742 140.508 158.15 140.292 158.63 140.004L159.89 141.984C159.026 142.728 158.306 143.196 157.73 143.388C157.178 143.58 156.71 143.676 156.326 143.676Z" fill="#044D29"/>
</svg>
